Coordinates
nRows=4
nColumns=38

# SIMM Motion File Header:
name Coordinates
datacolumns 38
datarows 4
otherdata 1
range 1.74430000000000000000 1.74730000000000010000

Units are S.I. units (second, meters, Newtons, ...)
Angles are in degrees.

endheader
time	pelvis_tilt	pelvis_list	pelvis_rotation	pelvis_tx	pelvis_ty	pelvis_tz	hip_flexion_r	hip_adduction_r	hip_rotation_r	knee_angle_r	ankle_angle_r	subtalar_angle_r	mtp_angle_r	hip_flexion_l	hip_adduction_l	hip_rotation_l	knee_angle_l	ankle_angle_l	subtalar_angle_l	mtp_angle_l	lumbar_extension	lumbar_bending	lumbar_rotation	arm_flex_r	arm_add_r	arm_rot_r	elbow_flex_r	pro_sup_r	wrist_flex_r	wrist_dev_r	arm_flex_l	arm_add_l	arm_rot_l	elbow_flex_l	pro_sup_l	wrist_flex_l	wrist_dev_l
      1.74430000000000000000	     -3.50803248290865840000	      1.83276087174456430000	     14.30530855049742400000	      0.78292235953473632000	      0.95667948485080190000	     -0.35105142779221432000	     40.27477407497495000000	    -10.36962749837976000000	     -7.13752769341790570000	   -131.53370664378355000000	      1.47914319997675880000	     -0.00000000000003102121	      0.00000000000012326385	      1.61681765294420090000	      8.37019176826773760000	     10.87607518318001500000	    -28.54797585983909900000	     19.12913899858890300000	     -0.00000000000000613228	     -0.00000000000004164801	    -14.83162652210137000000	     -1.34600399279393380000	    -11.44883151198538600000	    -36.33941720734000600000	    -21.28793042713131100000	    -13.61014557203797900000	    100.89570634354391000000	     68.48668970905740100000	     -0.00000000000001011186	      0.00000000000001080442	     15.71872577901540100000	    -40.75701120739322600000	    -10.09833456376212300000	    125.58301193795357000000	     91.96227443124203700000	      0.00000000000004208075	     -0.00000000000000743674
      1.74530000000000010000	     -3.50787655358938280000	      1.69470323506487010000	     14.32366826276124900000	      0.78308361873642951000	      0.95728203649001120000	     -0.35115251948510245000	     40.68090451029022600000	    -10.27252166362310400000	     -7.14439092842291320000	   -131.08650750914455000000	      1.55640102386134420000	     -0.00000000000003104436	      0.00000000000012358800	      1.08698499746784210000	      8.10345852703697390000	     10.98348469294804500000	    -28.07015444090035300000	     18.86029138072087700000	     -0.00000000000000606709	     -0.00000000000004227929	    -14.76448908399322800000	     -1.15655219826177840000	    -11.56427554600137600000	    -36.60365622276452100000	    -21.34968904342287400000	    -13.78724701035967500000	    101.01856298095095000000	     68.27076869127232300000	     -0.00000000000001018265	      0.00000000000001081771	     15.81023858698291600000	    -40.54778071117462400000	     -9.84174308261058780000	    125.52207289544567000000	     91.86949858576529900000	      0.00000000000004219643	     -0.00000000000000748876
      1.74630000000000000000	     -3.50935071772651600000	      1.55522975974112600000	     14.34035021885205000000	      0.78325513941242675000	      0.95788834402710676000	     -0.35125094121487410000	     41.08196187665257100000	    -10.17396989716136000000	     -7.15337517106379120000	   -130.62915630461777000000	      1.63248393776402720000	     -0.00000000000003106402	      0.00000000000012391166	      0.55846239750980808000	      7.83408917710405990000	     11.08756550399765900000	    -27.58621763815978400000	     18.57268735080649000000	     -0.00000000000000599086	     -0.00000000000004287718	    -14.69401440770258400000	     -0.96637902842910905000	    -11.67815406432043100000	    -36.86903045401265900000	    -21.41270357295512400000	    -13.96487555868560900000	    101.14439639978697000000	     68.06245591660076900000	     -0.00000000000001025390	      0.00000000000001083328	     15.89164876094525300000	    -40.34243601420760700000	     -9.58789847524364620000	    125.46288910669223000000	     91.77427431152749200000	      0.00000000000004231164	     -0.00000000000000755255
      1.74730000000000010000	     -3.51246109183665120000	      1.41446774484172090000	     14.35537098527676900000	      0.78343661078594162000	      0.95849815379934089000	     -0.35134673110585152000	     41.47789064626931600000	    -10.07413642815580200000	     -7.16439460303322930000	   -130.16183206481392000000	      1.70737829851827660000	     -0.00000000000003108600	      0.00000000000012423579	      0.03137768699318808900	      7.56233216748786590000	     11.18811998329822400000	    -27.09640453040089600000	     18.26610264553075400000	     -0.00000000000000588522	     -0.00000000000004358023	    -14.62028554627093300000	     -0.77560566892875960000	    -11.79049590320749500000	    -37.13544799705435700000	    -21.47690393580202100000	    -14.14306786326823900000	    101.27291828297273000000	     67.86198415875505000000	     -0.00000000000001032662	      0.00000000000001085025	     15.96321004307717000000	    -40.14105988027180400000	     -9.33655822641771490000	    125.40540783986560000000	     91.67694666209644100000	      0.00000000000004242832	     -0.00000000000000761615
